<?xml version="1.0" encoding="UTF-8" standalone="no"?>
<!-- Created with Inkscape (http://www.inkscape.org/) -->

<svg
   xmlns:dc="http://purl.org/dc/elements/1.1/"
   xmlns:cc="http://creativecommons.org/ns#"
   xmlns:rdf="http://www.w3.org/1999/02/22-rdf-syntax-ns#"
   xmlns:svg="http://www.w3.org/2000/svg"
   xmlns="http://www.w3.org/2000/svg"
   xmlns:sodipodi="http://sodipodi.sourceforge.net/DTD/sodipodi-0.dtd"
   xmlns:inkscape="http://www.inkscape.org/namespaces/inkscape"
   width="430"
   height="260"
   id="svg3380"
   version="1.1"
   inkscape:version="0.48.4 r9939"
   sodipodi:docname="Neues Dokument 5">
  <defs
     id="defs3">
    <clipPath
       clipPathUnits="userSpaceOnUse"
       id="clipPath3238">
      <path
         inkscape:connector-curvature="0"
         d="m 190.44,174.24 169.5,0 0,1.5 -169.5,0 0,-1.5 z"
         id="path3240" />
    </clipPath>
    <clipPath
       clipPathUnits="userSpaceOnUse"
       id="clipPath3176">
      <path
         inkscape:connector-curvature="0"
         d="m 59.88,174.24 132.18,0 0,1.5 -132.18,0 0,-1.5 z"
         id="path3178" />
    </clipPath>
    <clipPath
       clipPathUnits="userSpaceOnUse"
       id="clipPath3142">
      <path
         inkscape:connector-curvature="0"
         d="m 59.88,174.24 1.62,0 0,20.16 -1.62,0 0,-20.16 z"
         id="path3144" />
    </clipPath>
    <clipPath
       clipPathUnits="userSpaceOnUse"
       id="clipPath3118">
      <path
         inkscape:connector-curvature="0"
         d="m 358.32,174.24 1.62,0 0,20.16 -1.62,0 0,-20.16 z"
         id="path3120" />
    </clipPath>
  </defs>
  <sodipodi:namedview
     inkscape:document-units="mm"
     id="base"
     pagecolor="#ffffff"
     bordercolor="#666666"
     borderopacity="1.0"
     inkscape:pageopacity="0.0"
     inkscape:pageshadow="2"
     inkscape:zoom="1.4"
     inkscape:cx="171.92293"
     inkscape:cy="-26.96146"
     inkscape:current-layer="layer1"
     showgrid="false"
     units="px"
     fit-margin-top="0"
     fit-margin-left="0"
     fit-margin-right="0"
     fit-margin-bottom="0"
     inkscape:window-width="1855"
     inkscape:window-height="1056"
     inkscape:window-x="65"
     inkscape:window-y="24"
     inkscape:window-maximized="1" />
  <metadata
     id="metadata4">
    <rdf:RDF>
      <cc:Work
         rdf:about="">
        <dc:format>image/svg+xml</dc:format>
        <dc:type
           rdf:resource="http://purl.org/dc/dcmitype/StillImage" />
        <dc:title></dc:title>
      </cc:Work>
    </rdf:RDF>
  </metadata>
  <g
     inkscape:label="Layer 1"
     inkscape:groupmode="layer"
     id="layer1"
     transform="translate(-287.76033,-185.99718)">
    <rect
       style="fill:#ffffff;fill-opacity:1;stroke:none"
       id="rect3567"
       width="430"
       height="260"
       x="0"
       y="-0.71428597"
       transform="translate(287.76033,185.99718)" />
    <path
       inkscape:connector-curvature="0"
       d="m 342.77921,226.87216 0,23.325 m 46.65,-23.325 0,23.325"
       style="fill:none;stroke:#000000;stroke-width:0.59999996;stroke-linecap:round;stroke-linejoin:round;stroke-miterlimit:10;stroke-opacity:1;stroke-dasharray:none"
       id="path3094" />
    <text
       style="font-size:15px"
       y="201.14717"
       x="386.65421"
       id="text3096">
      <tspan
         style="font-size:10.40824986px;font-variant:normal;font-weight:normal;writing-mode:lr-tb;fill:#000000;fill-opacity:1;fill-rule:nonzero;stroke:none;font-family:Arial;-inkscape-font-specification:Arial"
         x="386.65421"
         y="201.14717"
         id="tspan3098">8</tspan>
      <tspan
         style="font-size:10.40824986px;font-variant:normal;font-weight:normal;writing-mode:lr-tb;fill:#000000;fill-opacity:1;fill-rule:nonzero;stroke:none;font-family:Arial;-inkscape-font-specification:Arial"
         x="481.15384"
         y="392.32175"
         id="tspan3100">.</tspan>
      <tspan
         style="font-size:10.40824986px;font-variant:normal;font-weight:normal;writing-mode:lr-tb;fill:#000000;fill-opacity:1;fill-rule:nonzero;stroke:none;font-family:Arial;-inkscape-font-specification:Arial"
         x="481.15384"
         y="404.02167"
         id="tspan3102">.</tspan>
      <tspan
         style="font-size:10.40824986px;font-variant:normal;font-weight:normal;writing-mode:lr-tb;fill:#000000;fill-opacity:1;fill-rule:nonzero;stroke:none;font-family:Arial;-inkscape-font-specification:Arial"
         x="481.15384"
         y="415.72156"
         id="tspan3104">.</tspan>
    </text>
    <path
       inkscape:connector-curvature="0"
       d="m 482.65421,226.87216 0,23.325 0,-23.325 m 0,23.325 0,23.4 m 34.95,-23.4 0,23.4"
       style="fill:none;stroke:#000000;stroke-width:0.59999996;stroke-linecap:round;stroke-linejoin:round;stroke-miterlimit:10;stroke-opacity:1;stroke-dasharray:none"
       id="path3106" />
    <path
       inkscape:connector-curvature="0"
       d="m 669.17921,413.77217 0,-46.725 m 0,-23.4 0,-46.725 m 0,46.725 0,-23.325 m 0,-46.72501 0,-46.725"
       style="fill:none;stroke:#000000;stroke-width:1.75874996;stroke-linecap:round;stroke-linejoin:round;stroke-miterlimit:10;stroke-opacity:1;stroke-dasharray:none"
       id="path3108" />
    <path
       inkscape:connector-curvature="0"
       d="m 389.42921,273.59716 0,23.32501 m 0,-75.97501 0,-11.625 0,11.625 m 0,-11.625 0,11.625 m 93.225,52.65 0,23.32501 m 0,-75.97501 0,-11.625 0,11.625"
       style="fill:none;stroke:#000000;stroke-width:0.59999996;stroke-linecap:round;stroke-linejoin:round;stroke-miterlimit:10;stroke-opacity:1;stroke-dasharray:none"
       id="path3110" />
    <path
       inkscape:connector-curvature="0"
       d="m 669.17921,296.92217 0,-23.32501 m 0,93.45001 0,-23.4"
       style="fill:none;stroke:#000000;stroke-width:1.75874996;stroke-linecap:round;stroke-linejoin:round;stroke-miterlimit:10;stroke-opacity:1;stroke-dasharray:none"
       id="path3112" />
    <g
       transform="matrix(1.25,0,0,-1.25,220.30421,655.79717)"
       id="g3114">
      <g
         id="g3116"
         clip-path="url(#clipPath3118)">
        <path
           inkscape:connector-curvature="0"
           d="m 359.1,174.96 0,18.66"
           style="fill:none;stroke:#000000;stroke-width:1.40699995;stroke-linecap:round;stroke-linejoin:round;stroke-miterlimit:10;stroke-opacity:1;stroke-dasharray:none"
           id="path3122" />
      </g>
    </g>
    <path
       inkscape:connector-curvature="0"
       d="m 669.17921,367.04717 0,-23.4"
       style="fill:none;stroke:#000000;stroke-width:1.75874996;stroke-linecap:round;stroke-linejoin:round;stroke-miterlimit:10;stroke-opacity:1;stroke-dasharray:none"
       id="path3124" />
    <path
       inkscape:connector-curvature="0"
       d="m 669.17921,220.94716 0,-11.625"
       style="fill:none;stroke:#000000;stroke-width:0.59999996;stroke-linecap:round;stroke-linejoin:round;stroke-miterlimit:10;stroke-opacity:1;stroke-dasharray:none"
       id="path3126" />
    <path
       inkscape:connector-curvature="0"
       d="m 296.12921,390.37217 0,23.4 m 0,-46.725 0,23.325 m 0,-70.05 0,23.325 m 0,-46.725 0,46.725 m 0,-93.45001 0,23.4 m 0,-46.725 0,23.325"
       style="fill:none;stroke:#000000;stroke-width:1.75874996;stroke-linecap:round;stroke-linejoin:round;stroke-miterlimit:10;stroke-opacity:1;stroke-dasharray:none"
       id="path3128" />
    <text
       style="font-size:15px"
       y="242.02217"
       x="301.82922"
       id="text3130">
      <tspan
         style="font-size:10.40824986px;font-variant:normal;font-weight:normal;writing-mode:lr-tb;fill:#000000;fill-opacity:1;fill-rule:nonzero;stroke:none;font-family:Arial;-inkscape-font-specification:Arial"
         x="301.82922 308.77151 314.5585 318.02444 323.22858 325.53922 331.3262"
         y="242.02217"
         sodipodi:role="line"
         id="tspan3132">Version</tspan>
      <tspan
         style="font-size:10.40824986px;font-variant:normal;font-weight:normal;writing-mode:lr-tb;fill:#000000;fill-opacity:1;fill-rule:nonzero;stroke:none;font-family:Arial;-inkscape-font-specification:Arial"
         x="293.35376 476.87723 482.66422 570.09869 575.88568 663.39514 669.18213 677.86682 684.80908 687.11975 690.01318"
         y="201.14688"
         sodipodi:role="line"
         id="tspan3134">0162432Bits</tspan>
    </text>
    <path
       inkscape:connector-curvature="0"
       d="m 296.12921,273.59716 0,23.32501 m 0,46.725 0,23.4"
       style="fill:none;stroke:#000000;stroke-width:1.75874996;stroke-linecap:round;stroke-linejoin:round;stroke-miterlimit:10;stroke-opacity:1;stroke-dasharray:none"
       id="path3136" />
    <g
       transform="matrix(1.25,0,0,-1.25,220.30421,655.79717)"
       id="g3138">
      <g
         id="g3140"
         clip-path="url(#clipPath3142)">
        <path
           inkscape:connector-curvature="0"
           d="m 60.66,193.62 0,-18.66"
           style="fill:none;stroke:#000000;stroke-width:1.40699995;stroke-linecap:round;stroke-linejoin:round;stroke-miterlimit:10;stroke-opacity:1;stroke-dasharray:none"
           id="path3146" />
      </g>
    </g>
    <path
       inkscape:connector-curvature="0"
       d="m 296.12921,343.64717 0,23.4"
       style="fill:none;stroke:#000000;stroke-width:1.75874996;stroke-linecap:round;stroke-linejoin:round;stroke-miterlimit:10;stroke-opacity:1;stroke-dasharray:none"
       id="path3148" />
    <path
       inkscape:connector-curvature="0"
       d="m 296.12921,209.32216 0,11.625 m 279.75,0 0,-11.625 0,11.625"
       style="fill:none;stroke:#000000;stroke-width:0.59999996;stroke-linecap:round;stroke-linejoin:round;stroke-miterlimit:10;stroke-opacity:1;stroke-dasharray:none"
       id="path3150" />
    <path
       inkscape:connector-curvature="0"
       d="m 296.12921,343.64717 163.2,0"
       style="fill:none;stroke:#000000;stroke-width:1.75874996;stroke-linecap:round;stroke-linejoin:round;stroke-miterlimit:10;stroke-opacity:1;stroke-dasharray:none"
       id="path3152" />
    <path
       inkscape:connector-curvature="0"
       d="m 296.12921,343.64717 163.2,0 -139.875,0 139.875,0 m 0,-23.325 -139.875,0"
       style="fill:none;stroke:#000000;stroke-width:0.59999996;stroke-linecap:round;stroke-linejoin:round;stroke-miterlimit:10;stroke-opacity:1;stroke-dasharray:none"
       id="path3154" />
    <path
       inkscape:connector-curvature="0"
       d="m 319.45421,320.32217 139.875,0 m -163.2,0 163.2,0"
       style="fill:none;stroke:#000000;stroke-width:1.75874996;stroke-linecap:round;stroke-linejoin:round;stroke-miterlimit:10;stroke-opacity:1;stroke-dasharray:none"
       id="path3156" />
    <path
       inkscape:connector-curvature="0"
       d="m 319.45421,320.32217 139.875,0 -139.875,0 m -23.325,0 163.2,0"
       style="fill:none;stroke:#000000;stroke-width:0.59999996;stroke-linecap:round;stroke-linejoin:round;stroke-miterlimit:10;stroke-opacity:1;stroke-dasharray:none"
       id="path3158" />
    <path
       inkscape:connector-curvature="0"
       d="m 296.12921,320.32217 163.2,0"
       style="fill:none;stroke:#000000;stroke-width:1.75874996;stroke-linecap:round;stroke-linejoin:round;stroke-miterlimit:10;stroke-opacity:1;stroke-dasharray:none"
       id="path3160" />
    <path
       inkscape:connector-curvature="0"
       d="m 459.32921,273.59716 -139.875,0"
       style="fill:none;stroke:#000000;stroke-width:0.59999996;stroke-linecap:round;stroke-linejoin:round;stroke-miterlimit:10;stroke-opacity:1;stroke-dasharray:none"
       id="path3162" />
    <path
       inkscape:connector-curvature="0"
       d="m 319.45421,273.59716 139.875,0 m -163.2,0 163.2,0 m 0,-23.4 -163.2,0"
       style="fill:none;stroke:#000000;stroke-width:1.75874996;stroke-linecap:round;stroke-linejoin:round;stroke-miterlimit:10;stroke-opacity:1;stroke-dasharray:none"
       id="path3164" />
    <path
       inkscape:connector-curvature="0"
       d="m 389.42921,220.94716 69.9,0 m -163.2,0 93.3,0"
       style="fill:none;stroke:#000000;stroke-width:0.59999996;stroke-linecap:round;stroke-linejoin:round;stroke-miterlimit:10;stroke-opacity:1;stroke-dasharray:none"
       id="path3166" />
    <path
       inkscape:connector-curvature="0"
       d="m 622.52921,250.19716 -139.875,0 186.525,0"
       style="fill:none;stroke:#000000;stroke-width:1.75874996;stroke-linecap:round;stroke-linejoin:round;stroke-miterlimit:10;stroke-opacity:1;stroke-dasharray:none"
       id="path3168" />
    <path
       inkscape:connector-curvature="0"
       d="m 529.22921,220.94716 139.95,0"
       style="fill:none;stroke:#000000;stroke-width:0.59999996;stroke-linecap:round;stroke-linejoin:round;stroke-miterlimit:10;stroke-opacity:1;stroke-dasharray:none"
       id="path3170" />
    <g
       transform="matrix(1.25,0,0,-1.25,220.30421,655.79717)"
       id="g3172">
      <g
         id="g3174"
         clip-path="url(#clipPath3176)">
        <path
           inkscape:connector-curvature="0"
           d="m 60.66,174.96 130.56,0"
           style="fill:none;stroke:#000000;stroke-width:1.40699995;stroke-linecap:round;stroke-linejoin:round;stroke-miterlimit:10;stroke-opacity:1;stroke-dasharray:none"
           id="path3180" />
      </g>
    </g>
    <path
       inkscape:connector-curvature="0"
       d="m 296.12921,367.04717 163.2,0 m -139.875,0 139.875,0 -139.875,0 m -23.325,0 163.2,0"
       style="fill:none;stroke:#000000;stroke-width:0.59999996;stroke-linecap:round;stroke-linejoin:round;stroke-miterlimit:10;stroke-opacity:1;stroke-dasharray:none"
       id="path3182" />
    <path
       inkscape:connector-curvature="0"
       d="m 296.12921,367.04717 163.2,0"
       style="fill:none;stroke:#000000;stroke-width:1.75874996;stroke-linecap:round;stroke-linejoin:round;stroke-miterlimit:10;stroke-opacity:1;stroke-dasharray:none"
       id="path3184" />
    <path
       inkscape:connector-curvature="0"
       d="m 319.45421,296.92217 139.875,0 -139.875,0 m -23.325,0 163.2,0"
       style="fill:none;stroke:#000000;stroke-width:0.59999996;stroke-linecap:round;stroke-linejoin:round;stroke-miterlimit:10;stroke-opacity:1;stroke-dasharray:none"
       id="path3186" />
    <path
       inkscape:connector-curvature="0"
       d="m 296.12921,296.92217 163.2,0"
       style="fill:none;stroke:#000000;stroke-width:1.75874996;stroke-linecap:round;stroke-linejoin:round;stroke-miterlimit:10;stroke-opacity:1;stroke-dasharray:none"
       id="path3188" />
    <path
       inkscape:connector-curvature="0"
       d="m 459.32921,296.92217 -139.875,0"
       style="fill:none;stroke:#000000;stroke-width:0.59999996;stroke-linecap:round;stroke-linejoin:round;stroke-miterlimit:10;stroke-opacity:1;stroke-dasharray:none"
       id="path3190" />
    <path
       inkscape:connector-curvature="0"
       d="m 319.45421,296.92217 139.875,0 m -163.2,0 163.2,0"
       style="fill:none;stroke:#000000;stroke-width:1.75874996;stroke-linecap:round;stroke-linejoin:round;stroke-miterlimit:10;stroke-opacity:1;stroke-dasharray:none"
       id="path3192" />
    <text
       style="font-size:15px"
       y="265.34717"
       x="335.95422"
       id="text3194">
      <tspan
         style="font-size:10.40824986px;font-variant:normal;font-weight:normal;writing-mode:lr-tb;fill:#000000;fill-opacity:1;fill-rule:nonzero;stroke:none;font-family:Arial;-inkscape-font-specification:Arial"
         x="335.95422 341.74121 347.52817 350.99414 356.78113 359.09174 361.98523 364.87872 367.77222 373.5592 379.34619 385.13318 388.02667 390.33731 393.2308 395.54144 400.74557 406.53256 409.42606 411.73666 417.52365 423.31064 426.20413 429.6701 432.56357 440.07834"
         y="265.34717"
         sodipodi:role="line"
         id="tspan3196">16-bit Identification (ID)</tspan>
      <tspan
         style="font-size:10.40824986px;font-variant:normal;font-weight:normal;writing-mode:lr-tb;fill:#000000;fill-opacity:1;fill-rule:nonzero;stroke:none;font-family:Arial;-inkscape-font-specification:Arial"
         x="413.87869 419.66568 423.13162 428.91861 431.22925 434.12274 437.01624 443.37567 451.4733 352.37842 359.89319 365.68018 372.62247"
         y="242.02228"
         sodipodi:role="line"
         id="tspan3198">8-bit TOSHLEN</tspan>
      <tspan
         style="font-size:10.40824986px;font-variant:normal;font-weight:normal;writing-mode:lr-tb;fill:#000000;fill-opacity:1;fill-rule:nonzero;stroke:none;font-family:Arial;-inkscape-font-specification:Arial"
         x="672.40295 678.18994 683.97693 686.87042 693.81274 699.01685 701.91034 707.69733"
         y="347.09668"
         sodipodi:role="line"
         id="tspan3200">20 Bytes</tspan>
    </text>
    <path
       inkscape:connector-curvature="0"
       d="m 669.17921,226.87216 -186.525,0"
       style="fill:none;stroke:#000000;stroke-width:1.75874996;stroke-linecap:round;stroke-linejoin:round;stroke-miterlimit:10;stroke-opacity:1;stroke-dasharray:none"
       id="path3202" />
    <text
       style="font-size:15px"
       y="265.34717"
       x="487.37921"
       id="text3204">
      <tspan
         style="font-size:10.40824986px;font-variant:normal;font-weight:normal;writing-mode:lr-tb;fill:#000000;fill-opacity:1;fill-rule:nonzero;stroke:none;font-family:Arial;-inkscape-font-specification:Arial"
         x="487.37921 493.73865 496.04929 501.83627 507.62326"
         y="265.34717"
         sodipodi:role="line"
         id="tspan3206">Flags</tspan>
      <tspan
         style="font-size:10.40824986px;font-variant:normal;font-weight:normal;writing-mode:lr-tb;fill:#000000;fill-opacity:1;fill-rule:nonzero;stroke:none;font-family:Arial;-inkscape-font-specification:Arial"
         x="522.1792 527.96619 533.75317 537.21912 543.0061 545.31671 548.21021 551.1037 557.46313 563.25012 566.14362 571.9306 574.24127 577.13477 582.92169 588.70874 594.49573 600.28271 603.17621 608.9632 611.85663 615.32263 621.68207 627.46906"
         y="242.02228"
         sodipodi:role="line"
         id="tspan3208">16-bit Total Length (TL)</tspan>
      <tspan
         style="font-size:10.40824986px;font-variant:normal;font-weight:normal;writing-mode:lr-tb;fill:#000000;fill-opacity:1;fill-rule:nonzero;stroke:none;font-family:Arial;-inkscape-font-specification:Arial"
         x="529.67938 535.46637 541.25336 544.7193 550.50629 552.81689 555.71039 558.60388 564.96332 568.42926 574.21625 580.00323 588.67334 594.46033 600.24731 603.14081 606.0343 614.1319 617.02539 619.91888 625.12305 630.91003 633.80353 636.69702 640.16296 646.52234 654.62"
         y="265.34717"
         sodipodi:role="line"
         id="tspan3210">13-bit Fragment Offset (FO)</tspan>
      <tspan
         style="font-size:10.40824986px;font-variant:normal;font-weight:normal;writing-mode:lr-tb;fill:#000000;fill-opacity:1;fill-rule:nonzero;stroke:none;font-family:Arial;-inkscape-font-specification:Arial"
         x="300.85504 306.64203 310.10797 315.89496 318.2056 321.09909 323.99258 330.35202 332.66266 341.33273 347.11969 350.58566 356.9451 362.73209 366.19803 371.98502 374.29565 379.49979 507.17154 512.9585 518.74548 522.21143 527.99841 530.30908 533.20258 536.09607 543.61084 549.39783 555.18475 560.97174 566.75873 570.22473 573.11823 580.63293 586.41992 592.20691 597.41107 602.61517 607.81927 613.60626"
         y="288.74701"
         sodipodi:role="line"
         id="tspan3212">8-bit Time-To-Live16-bit Header Checksum</tspan>
      <tspan
         style="font-size:10.40824986px;font-variant:normal;font-weight:normal;writing-mode:lr-tb;fill:#000000;fill-opacity:1;fill-rule:nonzero;stroke:none;font-family:Arial;-inkscape-font-specification:Arial"
         x="423.7796 430.72189 436.50888 439.97482 442.28546 448.07245 453.85944 456.17007 461.95706 464.85056 472.3653 478.15228 486.82236 492.60934 498.39633 501.86227 504.75577 510.54276 513.43628 516.32971 523.27203 528.4762 531.36969 537.15668"
         y="430.34708"
         sodipodi:role="line"
         id="tspan3214">Variable Number of Bytes</tspan>
      <tspan
         style="font-size:10.40824986px;font-variant:normal;font-weight:normal;writing-mode:lr-tb;fill:#000000;fill-opacity:1;fill-rule:nonzero;stroke:none;font-family:Arial;-inkscape-font-specification:Arial"
         x="446.80472 449.69821 456.64053 459.534 467.04877 473.99106 480.93338 488.44812 491.34161 498.85638 505.79868 512.15808"
         y="380.69763"
         sodipodi:role="line"
         id="tspan3216">IP USER DATA</tspan>
    </text>
    <path
       inkscape:connector-curvature="0"
       d="m 459.32921,343.64717 209.85,0"
       style="fill:none;stroke:#000000;stroke-width:1.75874996;stroke-linecap:round;stroke-linejoin:round;stroke-miterlimit:10;stroke-opacity:1;stroke-dasharray:none"
       id="path3218" />
    <path
       inkscape:connector-curvature="0"
       d="m 459.32921,343.64717 209.85,0 m -69.975,0 -139.875,0 139.875,0 m 0,-23.325 -139.875,0"
       style="fill:none;stroke:#000000;stroke-width:0.59999996;stroke-linecap:round;stroke-linejoin:round;stroke-miterlimit:10;stroke-opacity:1;stroke-dasharray:none"
       id="path3220" />
    <path
       inkscape:connector-curvature="0"
       d="m 459.32921,320.32217 139.875,0 m -139.875,0 209.85,0"
       style="fill:none;stroke:#000000;stroke-width:1.75874996;stroke-linecap:round;stroke-linejoin:round;stroke-miterlimit:10;stroke-opacity:1;stroke-dasharray:none"
       id="path3222" />
    <path
       inkscape:connector-curvature="0"
       d="m 459.32921,320.32217 139.875,0 -139.875,0 209.85,0"
       style="fill:none;stroke:#000000;stroke-width:0.59999996;stroke-linecap:round;stroke-linejoin:round;stroke-miterlimit:10;stroke-opacity:1;stroke-dasharray:none"
       id="path3224" />
    <path
       inkscape:connector-curvature="0"
       d="m 459.32921,320.32217 209.85,0"
       style="fill:none;stroke:#000000;stroke-width:1.75874996;stroke-linecap:round;stroke-linejoin:round;stroke-miterlimit:10;stroke-opacity:1;stroke-dasharray:none"
       id="path3226" />
    <path
       inkscape:connector-curvature="0"
       d="m 599.20421,273.59716 -139.875,0"
       style="fill:none;stroke:#000000;stroke-width:0.59999996;stroke-linecap:round;stroke-linejoin:round;stroke-miterlimit:10;stroke-opacity:1;stroke-dasharray:none"
       id="path3228" />
    <path
       inkscape:connector-curvature="0"
       d="m 459.32921,273.59716 139.875,0 m -139.875,0 209.85,0 m -349.725,-23.4 163.2,0"
       style="fill:none;stroke:#000000;stroke-width:1.75874996;stroke-linecap:round;stroke-linejoin:round;stroke-miterlimit:10;stroke-opacity:1;stroke-dasharray:none"
       id="path3230" />
    <path
       inkscape:connector-curvature="0"
       d="m 459.32921,220.94716 69.9,0"
       style="fill:none;stroke:#000000;stroke-width:0.59999996;stroke-linecap:round;stroke-linejoin:round;stroke-miterlimit:10;stroke-opacity:1;stroke-dasharray:none"
       id="path3232" />
    <g
       transform="matrix(1.25,0,0,-1.25,220.30421,655.79717)"
       id="g3234">
      <g
         id="g3236"
         clip-path="url(#clipPath3238)">
        <path
           inkscape:connector-curvature="0"
           d="m 191.22,174.96 167.88,0"
           style="fill:none;stroke:#000000;stroke-width:1.40699995;stroke-linecap:round;stroke-linejoin:round;stroke-miterlimit:10;stroke-opacity:1;stroke-dasharray:none"
           id="path3242" />
      </g>
    </g>
    <path
       inkscape:connector-curvature="0"
       d="m 459.32921,367.04717 209.85,0 m -209.85,0 139.875,0 -139.875,0 209.85,0"
       style="fill:none;stroke:#000000;stroke-width:0.59999996;stroke-linecap:round;stroke-linejoin:round;stroke-miterlimit:10;stroke-opacity:1;stroke-dasharray:none"
       id="path3244" />
    <path
       inkscape:connector-curvature="0"
       d="m 459.32921,367.04717 209.85,0"
       style="fill:none;stroke:#000000;stroke-width:1.75874996;stroke-linecap:round;stroke-linejoin:round;stroke-miterlimit:10;stroke-opacity:1;stroke-dasharray:none"
       id="path3246" />
    <path
       inkscape:connector-curvature="0"
       d="m 459.32921,296.92217 139.875,0 -139.875,0 209.85,0"
       style="fill:none;stroke:#000000;stroke-width:0.59999996;stroke-linecap:round;stroke-linejoin:round;stroke-miterlimit:10;stroke-opacity:1;stroke-dasharray:none"
       id="path3248" />
    <path
       inkscape:connector-curvature="0"
       d="m 459.32921,296.92217 209.85,0"
       style="fill:none;stroke:#000000;stroke-width:1.75874996;stroke-linecap:round;stroke-linejoin:round;stroke-miterlimit:10;stroke-opacity:1;stroke-dasharray:none"
       id="path3250" />
    <path
       inkscape:connector-curvature="0"
       d="m 599.20421,296.92217 -139.875,0"
       style="fill:none;stroke:#000000;stroke-width:0.59999996;stroke-linecap:round;stroke-linejoin:round;stroke-miterlimit:10;stroke-opacity:1;stroke-dasharray:none"
       id="path3252" />
    <path
       inkscape:connector-curvature="0"
       d="m 459.32921,296.92217 139.875,0 m -139.875,0 209.85,0"
       style="fill:none;stroke:#000000;stroke-width:1.75874996;stroke-linecap:round;stroke-linejoin:round;stroke-miterlimit:10;stroke-opacity:1;stroke-dasharray:none"
       id="path3254" />
    <text
       style="font-size:15px"
       y="312.07217"
       x="398.57919"
       id="text3256">
      <tspan
         style="font-size:10.40824986px;font-variant:normal;font-weight:normal;writing-mode:lr-tb;fill:#000000;fill-opacity:1;fill-rule:nonzero;stroke:none;font-family:Arial;-inkscape-font-specification:Arial"
         x="398.57919 404.36618 410.15317 413.61914 419.4061 421.71677 424.61023 427.50372 434.44604 440.23303 446.02002 449.48596 454.69009 460.47708 463.37054 466.26407 473.20636 476.09985 483.04214 488.82913 494.61612 498.08206 503.86905 509.07318 514.27734 517.17078 523.53021 529.31726 532.7832 535.6767 542.61896 548.40594 553.61005 558.81421 564.6012"
         y="312.07217"
         sodipodi:role="line"
         id="tspan3258">32-bit Source IP Address For Packet</tspan>
      <tspan
         style="font-size:10.40824986px;font-variant:normal;font-weight:normal;writing-mode:lr-tb;fill:#000000;fill-opacity:1;fill-rule:nonzero;stroke:none;font-family:Arial;-inkscape-font-specification:Arial"
         x="389.12955 394.91653 400.70352 404.16946 409.95645 412.26709 415.16058 418.05408 425.56885 431.35583 436.55994 439.45343 441.76407 447.55106 453.33804 456.23154 458.54218 464.32916 470.11615 473.00964 475.90314 482.84543 485.73892 492.68124 498.4682 504.25522 507.72116 513.50818 518.71228 523.91638 526.80988 533.16931 538.9563 542.42224 545.31573 552.25806 558.04504 563.24915 568.45331 574.24023"
         y="335.47198"
         sodipodi:role="line"
         id="tspan3260">32-bit Destination IP Address For Packet</tspan>
    </text>
    <path
       inkscape:connector-curvature="0"
       d="m 482.65421,226.87216 -186.525,0"
       style="fill:none;stroke:#000000;stroke-width:1.75874996;stroke-linecap:round;stroke-linejoin:round;stroke-miterlimit:10;stroke-opacity:1;stroke-dasharray:none"
       id="path3262" />
    <text
       style="font-size:15px"
       y="358.79703"
       x="373.97922"
       id="text3268">
      <tspan
         style="font-size:10.40824986px;font-variant:normal;font-weight:normal;writing-mode:lr-tb;fill:#000000;fill-opacity:1;fill-rule:nonzero;stroke:none;font-family:Arial;-inkscape-font-specification:Arial"
         x="373.97922 382.07681 387.8638 390.75729 393.06793 398.85492 404.64191 409.84604 412.73953 416.20547 423.14777 428.93475 432.4007 434.71133 440.49832 446.28531 448.59595 454.38293 457.27643 464.21872 466.52936 469.42285 474.62698 478.09293 480.98642 484.45236 487.34586 495.44348 501.23047 504.12396 506.4346 512.22156 518.00854 523.79553 526.1062 528.99969 532.46564 539.98041 545.76733 549.23334 555.02032 557.33093 562.53503 565.42853 572.9433 578.1474 583.93439 589.72137"
         y="358.79703"
         sodipodi:role="line"
         id="tspan3270">Options (Variable Bits) - Optional (Rarely Used)</tspan>
      <tspan
         style="font-size:10.40824986px;font-variant:normal;font-weight:normal;writing-mode:lr-tb;fill:#000000;fill-opacity:1;fill-rule:nonzero;stroke:none;font-family:Arial;-inkscape-font-specification:Arial"
         x="405.6286 411.41559 414.88156 420.66855 422.97916 425.87265 428.76614 435.70847 439.17441 444.9614 447.85489 453.64188 458.84601 464.63297"
         y="288.74744"
         sodipodi:role="line"
         id="tspan3272">8-bit Protocol</tspan>
    </text>
  </g>
</svg>
